<mxfile host="Electron" modified="2024-09-04T20:01:25.666Z" agent="Mozilla/5.0 (Windows NT 10.0; Win64; x64) AppleWebKit/537.36 (KHTML, like Gecko) draw.io/24.5.3 Chrome/124.0.6367.207 Electron/30.0.6 Safari/537.36" etag="DTBVS9JWL6omRCQYwwhU" version="24.5.3" type="device">
  <diagram name="Pagina-1" id="Ro-DHsbGZq3gxO1mUHvc">
    <mxGraphModel dx="1430" dy="825" grid="1" gridSize="10" guides="1" tooltips="1" connect="1" arrows="1" fold="1" page="1" pageScale="1" pageWidth="827" pageHeight="1169" math="0" shadow="0">
      <root>
        <mxCell id="0" />
        <mxCell id="1" parent="0" />
        <mxCell id="qUuAcU4v8W_62VsbhcYh-14" value="&lt;i&gt;Issue&lt;/i&gt;" style="swimlane;fontStyle=1;align=center;verticalAlign=top;childLayout=stackLayout;horizontal=1;startSize=30;horizontalStack=0;resizeParent=1;resizeParentMax=0;resizeLast=0;collapsible=1;marginBottom=0;whiteSpace=wrap;html=1;" parent="1" vertex="1">
          <mxGeometry x="30" y="220" width="270" height="360" as="geometry" />
        </mxCell>
        <mxCell id="qUuAcU4v8W_62VsbhcYh-15" value="+ name: str&lt;br&gt;+ description: str&lt;br&gt;+ weight: float&lt;br&gt;+ start_date: Date&lt;br&gt;+ end_date: Date&lt;br&gt;+ priority: Selection&lt;br&gt;+ status: Selection&lt;br&gt;+ assignee_id: Many2One&lt;br&gt;+ reviewer_id: Many2One&lt;br&gt;+ project_id: Many2One&lt;br&gt;+ label_ids: Many2Many" style="text;strokeColor=none;fillColor=none;align=left;verticalAlign=top;spacingLeft=4;spacingRight=4;overflow=hidden;rotatable=0;points=[[0,0.5],[1,0.5]];portConstraint=eastwest;whiteSpace=wrap;html=1;" parent="qUuAcU4v8W_62VsbhcYh-14" vertex="1">
          <mxGeometry y="30" width="270" height="170" as="geometry" />
        </mxCell>
        <mxCell id="qUuAcU4v8W_62VsbhcYh-16" value="" style="line;strokeWidth=1;fillColor=none;align=left;verticalAlign=middle;spacingTop=-1;spacingLeft=3;spacingRight=3;rotatable=0;labelPosition=right;points=[];portConstraint=eastwest;strokeColor=inherit;" parent="qUuAcU4v8W_62VsbhcYh-14" vertex="1">
          <mxGeometry y="200" width="270" height="8" as="geometry" />
        </mxCell>
        <mxCell id="qUuAcU4v8W_62VsbhcYh-17" value="- issue:_group_expand_labels(statuses, domain, order): void&lt;br&gt;- issue:_group_expand_status(statuses, domain, order): void&lt;br&gt;- issue:_check_weight(): void&lt;div&gt;- issue:_check_dates(): void&lt;br&gt;+ issue:action_set_status_in_progress(): void&lt;br&gt;+ issue:action_set_status_in_review(): void&lt;br&gt;+ issue:action_set_status_closed(): void&lt;br&gt;+ issue:message_post(**kwargs): void&lt;/div&gt;" style="text;strokeColor=none;fillColor=none;align=left;verticalAlign=top;spacingLeft=4;spacingRight=4;overflow=hidden;rotatable=0;points=[[0,0.5],[1,0.5]];portConstraint=eastwest;whiteSpace=wrap;html=1;" parent="qUuAcU4v8W_62VsbhcYh-14" vertex="1">
          <mxGeometry y="208" width="270" height="152" as="geometry" />
        </mxCell>
        <mxCell id="qUuAcU4v8W_62VsbhcYh-22" value="&lt;i&gt;&lt;span&gt;Label&lt;/span&gt;&lt;/i&gt;" style="swimlane;fontStyle=1;childLayout=stackLayout;horizontal=1;startSize=26;horizontalStack=0;resizeParent=1;resizeParentMax=0;resizeLast=0;collapsible=1;marginBottom=0;whiteSpace=wrap;html=1;" parent="1" vertex="1">
          <mxGeometry x="350" y="80" width="140" height="100" as="geometry" />
        </mxCell>
        <mxCell id="qUuAcU4v8W_62VsbhcYh-23" value="+ name: str&lt;br&gt;+ order: int&lt;br&gt;+ visible:bool&lt;br&gt;+ project_id: Many2One" style="text;strokeColor=none;fillColor=none;align=left;verticalAlign=top;spacingLeft=4;spacingRight=4;overflow=hidden;rotatable=0;points=[[0,0.5],[1,0.5]];portConstraint=eastwest;whiteSpace=wrap;html=1;" parent="qUuAcU4v8W_62VsbhcYh-22" vertex="1">
          <mxGeometry y="26" width="140" height="74" as="geometry" />
        </mxCell>
        <mxCell id="qUuAcU4v8W_62VsbhcYh-26" value="&lt;i&gt;&lt;b&gt;Milestone&lt;/b&gt;&lt;/i&gt;" style="swimlane;fontStyle=0;childLayout=stackLayout;horizontal=1;startSize=26;fillColor=default;horizontalStack=0;resizeParent=1;resizeParentMax=0;resizeLast=0;collapsible=1;marginBottom=0;whiteSpace=wrap;html=1;" parent="1" vertex="1">
          <mxGeometry x="350" y="580" width="160" height="120" as="geometry" />
        </mxCell>
        <mxCell id="qUuAcU4v8W_62VsbhcYh-27" value="+ name: str&lt;br&gt;+ start_date: Date&lt;br&gt;+ end_date: Date&lt;br&gt;+ status: Selection&lt;br&gt;+ project_id: int&lt;div&gt;- issue:_check_dates(): void&lt;br&gt;&lt;/div&gt;" style="text;strokeColor=none;fillColor=none;align=left;verticalAlign=top;spacingLeft=4;spacingRight=4;overflow=hidden;rotatable=0;points=[[0,0.5],[1,0.5]];portConstraint=eastwest;whiteSpace=wrap;html=1;" parent="qUuAcU4v8W_62VsbhcYh-26" vertex="1">
          <mxGeometry y="26" width="160" height="94" as="geometry" />
        </mxCell>
        <mxCell id="qUuAcU4v8W_62VsbhcYh-30" value="&lt;i&gt;Project&lt;/i&gt;" style="swimlane;fontStyle=1;align=center;verticalAlign=top;childLayout=stackLayout;horizontal=1;startSize=30;horizontalStack=0;resizeParent=1;resizeParentMax=0;resizeLast=0;collapsible=1;marginBottom=0;whiteSpace=wrap;html=1;" parent="1" vertex="1">
          <mxGeometry x="540" y="80" width="270" height="380" as="geometry" />
        </mxCell>
        <mxCell id="qUuAcU4v8W_62VsbhcYh-31" value="+ name: str&lt;br style=&quot;border-color: var(--border-color);&quot;&gt;+ description: str&lt;br style=&quot;border-color: var(--border-color);&quot;&gt;+ status: Selection&lt;br style=&quot;border-color: var(--border-color);&quot;&gt;+ issue_ids: One2Many&lt;br style=&quot;border-color: var(--border-color);&quot;&gt;+ milestone_ids: One2Many&lt;br style=&quot;border-color: var(--border-color);&quot;&gt;+ labels_id: One2Many&lt;br style=&quot;border-color: var(--border-color);&quot;&gt;+ assignee_ids: Many2Many&lt;br style=&quot;border-color: var(--border-color);&quot;&gt;+ reviewer_ids: Many2Many&lt;br style=&quot;border-color: var(--border-color);&quot;&gt;+ open_issues_count: int&lt;br style=&quot;border-color: var(--border-color);&quot;&gt;+ in_progress_issues_count: int&lt;br style=&quot;border-color: var(--border-color);&quot;&gt;+ in_review_issues_count: int&lt;br style=&quot;border-color: var(--border-color);&quot;&gt;+ cancelled_issues_count: int&lt;br style=&quot;border-color: var(--border-color);&quot;&gt;+ closed_issues_count: int&lt;br style=&quot;border-color: var(--border-color);&quot;&gt;+ issues_count: int&lt;br style=&quot;border-color: var(--border-color);&quot;&gt;+ active_issues_count: int&lt;br style=&quot;border-color: var(--border-color);&quot;&gt;+ milestones_count: int&lt;br style=&quot;border-color: var(--border-color);&quot;&gt;+ active_milestones_count: int" style="text;strokeColor=none;fillColor=none;align=left;verticalAlign=top;spacingLeft=4;spacingRight=4;overflow=hidden;rotatable=0;points=[[0,0.5],[1,0.5]];portConstraint=eastwest;whiteSpace=wrap;html=1;" parent="qUuAcU4v8W_62VsbhcYh-30" vertex="1">
          <mxGeometry y="30" width="270" height="260" as="geometry" />
        </mxCell>
        <mxCell id="qUuAcU4v8W_62VsbhcYh-32" value="" style="line;strokeWidth=1;fillColor=none;align=left;verticalAlign=middle;spacingTop=-1;spacingLeft=3;spacingRight=3;rotatable=0;labelPosition=right;points=[];portConstraint=eastwest;strokeColor=inherit;" parent="qUuAcU4v8W_62VsbhcYh-30" vertex="1">
          <mxGeometry y="290" width="270" height="8" as="geometry" />
        </mxCell>
        <mxCell id="qUuAcU4v8W_62VsbhcYh-33" value="- project:_compute_issues_count: void&lt;br&gt;- project:_compute_assignee_ids: void&lt;br&gt;- project:_compute_reviewer_ids: void&lt;br&gt;- project:_group_expand_status(statuses, domain, order): void" style="text;strokeColor=none;fillColor=none;align=left;verticalAlign=top;spacingLeft=4;spacingRight=4;overflow=hidden;rotatable=0;points=[[0,0.5],[1,0.5]];portConstraint=eastwest;whiteSpace=wrap;html=1;" parent="qUuAcU4v8W_62VsbhcYh-30" vertex="1">
          <mxGeometry y="298" width="270" height="82" as="geometry" />
        </mxCell>
        <mxCell id="qUuAcU4v8W_62VsbhcYh-57" value="" style="endArrow=none;html=1;rounded=0;entryX=0.998;entryY=0.187;entryDx=0;entryDy=0;entryPerimeter=0;exitX=0.004;exitY=0.652;exitDx=0;exitDy=0;exitPerimeter=0;" parent="1" source="qUuAcU4v8W_62VsbhcYh-31" target="qUuAcU4v8W_62VsbhcYh-15" edge="1">
          <mxGeometry width="50" height="50" relative="1" as="geometry">
            <mxPoint x="520" y="280" as="sourcePoint" />
            <mxPoint x="570" y="230" as="targetPoint" />
          </mxGeometry>
        </mxCell>
        <mxCell id="qUuAcU4v8W_62VsbhcYh-58" value="" style="endArrow=none;html=1;rounded=0;entryX=0.777;entryY=-0.007;entryDx=0;entryDy=0;entryPerimeter=0;exitX=1;exitY=1;exitDx=0;exitDy=0;" parent="1" source="qUuAcU4v8W_62VsbhcYh-72" target="qUuAcU4v8W_62VsbhcYh-14" edge="1">
          <mxGeometry width="50" height="50" relative="1" as="geometry">
            <mxPoint x="239.94000000000005" y="152.68400000000008" as="sourcePoint" />
            <mxPoint x="309" y="290" as="targetPoint" />
            <Array as="points">
              <mxPoint x="240" y="120" />
            </Array>
          </mxGeometry>
        </mxCell>
        <mxCell id="qUuAcU4v8W_62VsbhcYh-60" value="" style="endArrow=none;html=1;rounded=0;entryX=0;entryY=0;entryDx=0;entryDy=0;" parent="1" target="qUuAcU4v8W_62VsbhcYh-73" edge="1">
          <mxGeometry width="50" height="50" relative="1" as="geometry">
            <mxPoint x="540" y="200" as="sourcePoint" />
            <mxPoint x="329" y="310" as="targetPoint" />
            <Array as="points">
              <mxPoint x="420" y="200" />
            </Array>
          </mxGeometry>
        </mxCell>
        <mxCell id="qUuAcU4v8W_62VsbhcYh-62" value="" style="endArrow=none;html=1;rounded=0;entryX=0;entryY=1;entryDx=0;entryDy=0;exitX=1;exitY=1;exitDx=0;exitDy=0;" parent="1" source="qUuAcU4v8W_62VsbhcYh-80" target="qUuAcU4v8W_62VsbhcYh-81" edge="1">
          <mxGeometry width="50" height="50" relative="1" as="geometry">
            <mxPoint x="541" y="360" as="sourcePoint" />
            <mxPoint x="300" y="361" as="targetPoint" />
            <Array as="points">
              <mxPoint x="400" y="360" />
            </Array>
          </mxGeometry>
        </mxCell>
        <mxCell id="qUuAcU4v8W_62VsbhcYh-63" value="" style="endArrow=none;html=1;rounded=0;exitX=-0.001;exitY=0.96;exitDx=0;exitDy=0;exitPerimeter=0;entryX=0;entryY=1;entryDx=0;entryDy=0;" parent="1" source="qUuAcU4v8W_62VsbhcYh-31" target="qUuAcU4v8W_62VsbhcYh-79" edge="1">
          <mxGeometry width="50" height="50" relative="1" as="geometry">
            <mxPoint x="600" y="339" as="sourcePoint" />
            <mxPoint x="440" y="360" as="targetPoint" />
            <Array as="points">
              <mxPoint x="440" y="360" />
            </Array>
          </mxGeometry>
        </mxCell>
        <mxCell id="qUuAcU4v8W_62VsbhcYh-64" value="&lt;b&gt;&amp;lt;framework&amp;gt;&lt;br&gt;ResUser&lt;/b&gt;" style="swimlane;fontStyle=0;childLayout=stackLayout;horizontal=1;startSize=30;fillColor=default;horizontalStack=0;resizeParent=1;resizeParentMax=0;resizeLast=0;collapsible=1;marginBottom=0;whiteSpace=wrap;html=1;" parent="1" vertex="1">
          <mxGeometry x="90" y="634" width="140" height="56" as="geometry" />
        </mxCell>
        <mxCell id="qUuAcU4v8W_62VsbhcYh-66" value="(altri campi)" style="text;strokeColor=none;fillColor=none;align=left;verticalAlign=top;spacingLeft=4;spacingRight=4;overflow=hidden;rotatable=0;points=[[0,0.5],[1,0.5]];portConstraint=eastwest;whiteSpace=wrap;html=1;" parent="qUuAcU4v8W_62VsbhcYh-64" vertex="1">
          <mxGeometry y="30" width="140" height="26" as="geometry" />
        </mxCell>
        <mxCell id="qUuAcU4v8W_62VsbhcYh-68" value="" style="endArrow=none;html=1;rounded=0;entryX=0.481;entryY=1.008;entryDx=0;entryDy=0;entryPerimeter=0;exitX=0.5;exitY=0;exitDx=0;exitDy=0;" parent="1" source="qUuAcU4v8W_62VsbhcYh-64" target="qUuAcU4v8W_62VsbhcYh-17" edge="1">
          <mxGeometry width="50" height="50" relative="1" as="geometry">
            <mxPoint x="610" y="349" as="sourcePoint" />
            <mxPoint x="369" y="350" as="targetPoint" />
          </mxGeometry>
        </mxCell>
        <mxCell id="qUuAcU4v8W_62VsbhcYh-69" value="0..*" style="text;html=1;strokeColor=none;fillColor=none;align=center;verticalAlign=middle;whiteSpace=wrap;rounded=0;" parent="1" vertex="1">
          <mxGeometry x="210" y="210" width="30" height="10" as="geometry" />
        </mxCell>
        <mxCell id="qUuAcU4v8W_62VsbhcYh-72" value="0..*" style="text;html=1;strokeColor=none;fillColor=none;align=center;verticalAlign=middle;whiteSpace=wrap;rounded=0;" parent="1" vertex="1">
          <mxGeometry x="320" y="110" width="30" height="10" as="geometry" />
        </mxCell>
        <mxCell id="qUuAcU4v8W_62VsbhcYh-73" value="1" style="text;html=1;strokeColor=none;fillColor=none;align=center;verticalAlign=middle;whiteSpace=wrap;rounded=0;" parent="1" vertex="1">
          <mxGeometry x="420" y="180" width="30" height="10" as="geometry" />
        </mxCell>
        <mxCell id="qUuAcU4v8W_62VsbhcYh-74" value="0..*" style="text;html=1;strokeColor=none;fillColor=none;align=center;verticalAlign=middle;whiteSpace=wrap;rounded=0;" parent="1" vertex="1">
          <mxGeometry x="510" y="200" width="30" height="10" as="geometry" />
        </mxCell>
        <mxCell id="qUuAcU4v8W_62VsbhcYh-76" value="0..*" style="text;html=1;strokeColor=none;fillColor=none;align=center;verticalAlign=middle;whiteSpace=wrap;rounded=0;" parent="1" vertex="1">
          <mxGeometry x="510" y="265" width="30" height="10" as="geometry" />
        </mxCell>
        <mxCell id="qUuAcU4v8W_62VsbhcYh-77" value="1" style="text;html=1;strokeColor=none;fillColor=none;align=center;verticalAlign=middle;whiteSpace=wrap;rounded=0;" parent="1" vertex="1">
          <mxGeometry x="300" y="265" width="30" height="10" as="geometry" />
        </mxCell>
        <mxCell id="qUuAcU4v8W_62VsbhcYh-78" value="0..*" style="text;html=1;strokeColor=none;fillColor=none;align=center;verticalAlign=middle;whiteSpace=wrap;rounded=0;" parent="1" vertex="1">
          <mxGeometry x="510" y="350" width="30" height="10" as="geometry" />
        </mxCell>
        <mxCell id="qUuAcU4v8W_62VsbhcYh-79" value="1" style="text;html=1;strokeColor=none;fillColor=none;align=center;verticalAlign=middle;whiteSpace=wrap;rounded=0;" parent="1" vertex="1">
          <mxGeometry x="440" y="570" width="30" height="10" as="geometry" />
        </mxCell>
        <mxCell id="qUuAcU4v8W_62VsbhcYh-80" value="0..*" style="text;html=1;strokeColor=none;fillColor=none;align=center;verticalAlign=middle;whiteSpace=wrap;rounded=0;" parent="1" vertex="1">
          <mxGeometry x="370" y="570" width="30" height="10" as="geometry" />
        </mxCell>
        <mxCell id="qUuAcU4v8W_62VsbhcYh-81" value="1" style="text;html=1;strokeColor=none;fillColor=none;align=center;verticalAlign=middle;whiteSpace=wrap;rounded=0;" parent="1" vertex="1">
          <mxGeometry x="300" y="350" width="30" height="10" as="geometry" />
        </mxCell>
        <mxCell id="qUuAcU4v8W_62VsbhcYh-84" value="0..*" style="text;html=1;strokeColor=none;fillColor=none;align=center;verticalAlign=middle;whiteSpace=wrap;rounded=0;" parent="1" vertex="1">
          <mxGeometry x="160" y="624" width="30" height="10" as="geometry" />
        </mxCell>
        <mxCell id="qUuAcU4v8W_62VsbhcYh-85" value="1" style="text;html=1;strokeColor=none;fillColor=none;align=center;verticalAlign=middle;whiteSpace=wrap;rounded=0;" parent="1" vertex="1">
          <mxGeometry x="160" y="580" width="30" height="10" as="geometry" />
        </mxCell>
        <mxCell id="qUuAcU4v8W_62VsbhcYh-86" value="" style="endArrow=none;html=1;rounded=0;entryX=0.501;entryY=1.066;entryDx=0;entryDy=0;entryPerimeter=0;" parent="1" target="qUuAcU4v8W_62VsbhcYh-66" edge="1">
          <mxGeometry width="50" height="50" relative="1" as="geometry">
            <mxPoint x="680" y="460" as="sourcePoint" />
            <mxPoint x="160" y="733" as="targetPoint" />
            <Array as="points">
              <mxPoint x="680" y="720" />
              <mxPoint x="160" y="720" />
            </Array>
          </mxGeometry>
        </mxCell>
        <mxCell id="qUuAcU4v8W_62VsbhcYh-87" value="0..*" style="text;html=1;strokeColor=none;fillColor=none;align=center;verticalAlign=middle;whiteSpace=wrap;rounded=0;" parent="1" vertex="1">
          <mxGeometry x="680" y="470" width="30" height="10" as="geometry" />
        </mxCell>
        <mxCell id="qUuAcU4v8W_62VsbhcYh-88" value="0..*" style="text;html=1;strokeColor=none;fillColor=none;align=center;verticalAlign=middle;whiteSpace=wrap;rounded=0;" parent="1" vertex="1">
          <mxGeometry x="160" y="690" width="30" height="10" as="geometry" />
        </mxCell>
      </root>
    </mxGraphModel>
  </diagram>
</mxfile>
